<?xml version="1.0" encoding="UTF-8"?>
<svg width="379px" height="421px" viewBox="0 0 379 421" version="1.1" xmlns="http://www.w3.org/2000/svg" xmlns:xlink="http://www.w3.org/1999/xlink">
    <!-- Generator: Sketch 50 (54983) - http://www.bohemiancoding.com/sketch -->
    <title>Artboard</title>
    <desc>Created with Sketch.</desc>
    <defs></defs>
    <g id="Artboard" stroke="none" stroke-width="1" fill="none" fill-rule="evenodd">
        <g id="Group" transform="translate(0.000000, 107.000000)">
            <path d="M323,94.6685744 L323,112.223725 C317.946434,112.367326 313.828168,113.875116 310.645078,116.747138 C307.461988,119.619161 305.345428,123.514283 304.295337,128.432622 C303.245245,133.350961 302.687392,141.805351 302.621762,153.796046 C302.556131,165.78674 302.359242,173.684684 302.031088,177.490114 C301.440412,183.593163 300.341113,188.457578 298.733161,192.083507 C297.125208,195.709435 295.139908,198.617315 292.777202,200.807232 C290.414496,202.997149 287.395528,204.666487 283.720207,205.815297 C281.22624,206.605103 277.157196,207 271.512953,207 L266,207 L266,190.091051 L269.051813,190.091051 C275.877409,190.091051 280.405861,188.744811 282.637306,186.052289 C284.86875,183.359768 285.984456,177.310661 285.984456,167.904787 C285.984456,149.954645 286.27979,138.574426 286.870466,133.763788 C287.920558,125.793925 290.02071,119.42172 293.170984,114.646982 C296.321259,109.872245 300.784082,106.156621 306.559585,103.5 C299.012052,99.5509688 293.696043,94.3275559 290.611399,87.8296046 C287.526755,81.3316533 285.984456,70.3642811 285.984456,54.9271592 C285.984456,40.9260486 285.820382,32.561408 285.492228,29.8329865 C285.032813,25.0223485 283.736626,21.6657223 281.603627,19.7630073 C279.470628,17.8602923 275.286732,16.908949 269.051813,16.908949 L266,16.908949 L266,0 L271.512953,0 C277.944764,0 282.604476,0.574395921 285.492228,1.72320499 C289.692594,3.30281747 293.170971,5.95939861 295.927461,9.6930281 C298.683952,13.4266576 300.472362,18.1295242 301.292746,23.801769 C302.11313,29.4740138 302.556131,38.7720478 302.621762,51.6961498 C302.687392,64.6202519 303.245245,73.5413386 304.295337,78.4596774 C305.345428,83.3780163 307.461988,87.2731386 310.645078,90.1451613 C313.828168,93.017184 317.946434,94.5249733 323,94.6685744 Z" id="}" fill="#4A4A4A"></path>
            <path d="M379,94.6685744 L379,112.223725 C373.946434,112.367326 369.828168,113.875116 366.645078,116.747138 C363.461988,119.619161 361.345428,123.514283 360.295337,128.432622 C359.245245,133.350961 358.687392,141.805351 358.621762,153.796046 C358.556131,165.78674 358.359242,173.684684 358.031088,177.490114 C357.440412,183.593163 356.341113,188.457578 354.733161,192.083507 C353.125208,195.709435 351.139908,198.617315 348.777202,200.807232 C346.414496,202.997149 343.395528,204.666487 339.720207,205.815297 C337.22624,206.605103 333.157196,207 327.512953,207 L322,207 L322,190.091051 L325.051813,190.091051 C331.877409,190.091051 336.405861,188.744811 338.637306,186.052289 C340.86875,183.359768 341.984456,177.310661 341.984456,167.904787 C341.984456,149.954645 342.27979,138.574426 342.870466,133.763788 C343.920558,125.793925 346.02071,119.42172 349.170984,114.646982 C352.321259,109.872245 356.784082,106.156621 362.559585,103.5 C355.012052,99.5509688 349.696043,94.3275559 346.611399,87.8296046 C343.526755,81.3316533 341.984456,70.3642811 341.984456,54.9271592 C341.984456,40.9260486 341.820382,32.561408 341.492228,29.8329865 C341.032813,25.0223485 339.736626,21.6657223 337.603627,19.7630073 C335.470628,17.8602923 331.286732,16.908949 325.051813,16.908949 L322,16.908949 L322,0 L327.512953,0 C333.944764,0 338.604476,0.574395921 341.492228,1.72320499 C345.692594,3.30281747 349.170971,5.95939861 351.927461,9.6930281 C354.683952,13.4266576 356.472362,18.1295242 357.292746,23.801769 C358.11313,29.4740138 358.556131,38.7720478 358.621762,51.6961498 C358.687392,64.6202519 359.245245,73.5413386 360.295337,78.4596774 C361.345428,83.3780163 363.461988,87.2731386 366.645078,90.1451613 C369.828168,93.017184 373.946434,94.5249733 379,94.6685744 Z" id="}" fill="#4A4A4A"></path>
            <path d="M57,95.6685744 C62.0535659,95.5249733 66.1718321,94.0351338 69.3549223,91.1990114 C72.5380125,88.362889 74.6545716,84.4677667 75.7046632,79.5135276 C76.7547548,74.5592884 77.3126076,66.0869486 77.3782383,54.0962539 C77.4438691,42.1055592 77.6407583,34.2076153 77.9689119,30.4021852 C78.5595884,24.3709376 79.6588866,19.524472 81.2668394,15.8626431 C82.8747922,12.2008142 84.8600918,9.27498493 87.2227979,7.08506764 C89.585504,4.89515034 92.6044721,3.2258122 96.2797927,2.07700312 C98.7737603,1.35899745 102.842804,1 108.487047,1 L114,1 L114,17.908949 L110.948187,17.908949 C104.122591,17.908949 99.594139,19.2551895 97.3626943,21.9477107 C95.1312496,24.640232 94.015544,30.6534393 94.015544,39.987513 C94.015544,58.7992616 93.6545805,70.6820772 92.9326425,75.6363163 C91.7512894,83.318977 89.7331749,89.242435 86.8782383,93.4068678 C84.0233018,97.5713007 79.544072,101.268974 73.4404145,104.5 C80.6597943,107.802826 85.8937661,112.84674 89.142487,119.631894 C92.391208,126.417047 94.015544,137.528019 94.015544,152.96514 C94.015544,166.966251 94.1468035,175.294992 94.4093264,177.951613 C94.9343722,182.834051 96.2633745,186.244527 98.3963731,188.183143 C100.529372,190.121758 104.713268,191.091051 110.948187,191.091051 L114,191.091051 L114,208 L108.487047,208 C102.055236,208 97.3955239,207.425604 94.507772,206.276795 C90.3074056,204.625382 86.8290293,201.950851 84.0725389,198.253122 C81.3160484,194.555393 79.527638,189.870476 78.7072539,184.198231 C77.8868698,178.525986 77.4438691,169.227952 77.3782383,156.30385 C77.3126076,143.379748 76.7547548,134.440712 75.7046632,129.486472 C74.6545716,124.532233 72.5380125,120.619161 69.3549223,117.747138 C66.1718321,114.875116 62.0535659,113.367326 57,113.223725 L57,95.6685744 Z" id="{" fill="#4A4A4A"></path>
            <path d="M0,95.6685744 C5.05356585,95.5249733 9.1718321,94.0351338 12.3549223,91.1990114 C15.5380125,88.362889 17.6545716,84.4677667 18.7046632,79.5135276 C19.7547548,74.5592884 20.3126076,66.0869486 20.3782383,54.0962539 C20.4438691,42.1055592 20.6407583,34.2076153 20.9689119,30.4021852 C21.5595884,24.3709376 22.6588866,19.524472 24.2668394,15.8626431 C25.8747922,12.2008142 27.8600918,9.27498493 30.2227979,7.08506764 C32.585504,4.89515034 35.6044721,3.2258122 39.2797927,2.07700312 C41.7737603,1.35899745 45.8428042,1 51.4870466,1 L57,1 L57,17.908949 L53.9481865,17.908949 C47.1225911,17.908949 42.594139,19.2551895 40.3626943,21.9477107 C38.1312496,24.640232 37.015544,30.6534393 37.015544,39.987513 C37.015544,58.7992616 36.6545805,70.6820772 35.9326425,75.6363163 C34.7512894,83.318977 32.7331749,89.242435 29.8782383,93.4068678 C27.0233018,97.5713007 22.544072,101.268974 16.4404145,104.5 C23.6597943,107.802826 28.8937661,112.84674 32.142487,119.631894 C35.391208,126.417047 37.015544,137.528019 37.015544,152.96514 C37.015544,166.966251 37.1468035,175.294992 37.4093264,177.951613 C37.9343722,182.834051 39.2633745,186.244527 41.3963731,188.183143 C43.5293716,190.121758 47.7132676,191.091051 53.9481865,191.091051 L57,191.091051 L57,208 L51.4870466,208 C45.0552355,208 40.3955239,207.425604 37.507772,206.276795 C33.3074056,204.625382 29.8290293,201.950851 27.0725389,198.253122 C24.3160484,194.555393 22.527638,189.870476 21.7072539,184.198231 C20.8868698,178.525986 20.4438691,169.227952 20.3782383,156.30385 C20.3126076,143.379748 19.7547548,134.440712 18.7046632,129.486472 C17.6545716,124.532233 15.5380125,120.619161 12.3549223,117.747138 C9.1718321,114.875116 5.05356585,113.367326 0,113.223725 L0,95.6685744 Z" id="{" fill="#4A4A4A"></path>
            <path d="M259,46.7638225 C259,54.3242699 255.935291,61.6907491 249.805783,68.8634812 L248.851666,69.9296928 L195.247643,133.030034 C183.856008,146.40621 174.155917,156.745128 166.147077,164.047099 C158.138238,171.34907 152.485874,175 149.189818,175 C145.720284,175 141.412345,173.174535 136.265871,169.523549 C131.119396,165.872564 127.794476,162.108552 126.291012,158.231399 C125.01885,155.000439 123.818987,148.150906 122.691389,137.682594 C121.563791,127.214282 121,115.873781 121,103.660751 C121,97.0049724 123.486462,90.8500852 128.459459,85.1959044 C133.432457,79.5417237 138.925803,76.7146758 144.939661,76.7146758 C150.664391,76.7146758 154.076047,82.5626264 155.174733,94.2587031 C155.290384,95.6157064 155.377121,96.6172891 155.434947,97.2634812 C156.360155,106.245551 157.429912,112.51352 158.644249,116.067577 C159.858586,119.621633 161.506589,121.398635 163.588309,121.398635 C164.455693,121.398635 166.074784,120.348588 168.445632,118.248464 C170.816479,116.14834 173.649889,113.288983 176.945946,109.670307 L232.024513,48.7023891 C236.650557,43.5328524 240.785023,39.623449 244.428033,36.9740614 C248.071043,34.3246739 251.164664,33 253.708988,33 C255.617231,33 256.976112,33.807728 257.785669,35.4232082 C258.595227,37.0386884 259,39.7526544 259,43.5651877 L259,46.7638225 Z" id="✔" fill="#7ED321"></path>
        </g>
    </g>
</svg>